<svg xmlns="http://www.w3.org/2000/svg" viewBox="0 0 140 140" role="img" aria-labelledby="title desc">
  <title id="title">Ícono de crecimiento con hueso</title>
  <desc id="desc">Flecha ascendente en forma de hueso con gráficos de barras para representar crecimiento financiero.</desc>
  <defs>
    <linearGradient id="bg" x1="0" y1="0" x2="1" y2="1">
      <stop offset="0%" stop-color="#E7F5F4" />
      <stop offset="100%" stop-color="#C9EFEA" />
    </linearGradient>
    <linearGradient id="bone" x1="0" y1="0" x2="1" y2="1">
      <stop offset="0%" stop-color="#FFF5E9" />
      <stop offset="100%" stop-color="#F8DED0" />
    </linearGradient>
  </defs>
  <rect x="6" y="6" width="128" height="128" rx="28" fill="url(#bg)" />
  <path d="M38 86c-8 0-16 6-16 16 0 8 4 14 10 18 6 4 15 3 21-2 6-4 13-6 20-6h32c7 0 14 3 20 7 7 4 16 4 22-1 6-4 9-11 8-18-1-8-7-14-15-15-4-10-14-17-25-17-10 0-19 5-24 12-7-9-18-14-30-14-12 0-23 6-28 16-1-1-3-1-5-1z" fill="url(#bone)" stroke="#F0C9B8" stroke-width="4" />
  <path d="M38 86c-8 0-16 6-16 16 0 8 4 14 10 18 6 4 15 3 21-2 6-4 13-6 20-6h32c7 0 14 3 20 7 7 4 16 4 22-1 6-4 9-11 8-18-1-8-7-14-15-15-4-10-14-17-25-17-10 0-19 5-24 12-7-9-18-14-30-14-12 0-23 6-28 16-1-1-3-1-5-1z" fill="#FFFFFF" opacity=".5" />
  <path d="M40 90c-6 0-12 5-12 12 0 6 3 10 8 13 5 3 12 2 17-2 6-5 13-7 20-7h32c7 0 14 3 20 7 6 4 13 4 17 0 5-3 7-9 6-14-2-6-7-10-13-10-3 0-6 1-8 2-6-8-15-13-25-13-10 0-19 5-24 12-6-7-16-12-26-12-11 0-21 5-26 12-2-1-4-2-6-2z" fill="#3FB6B0" opacity=".12" />
  <g transform="translate(32 32)">
    <rect x="12" y="44" width="12" height="36" rx="4" fill="#2B8F89" />
    <rect x="30" y="36" width="12" height="44" rx="4" fill="#3FB6B0" />
    <rect x="48" y="28" width="12" height="52" rx="4" fill="#64D0CA" />
    <rect x="66" y="18" width="12" height="62" rx="4" fill="#9AE2DE" />
    <path d="M14 44l20-16 16 12 22-24 16 14 12-18" fill="none" stroke="#1D2B4F" stroke-width="5" stroke-linecap="round" stroke-linejoin="round" />
    <path d="M96 12l-2 22-20-2 8-8-12-10 6-10z" fill="#1D2B4F" opacity=".12" />
  </g>
  <circle cx="44" cy="50" r="10" fill="#1D2B4F" />
  <circle cx="54" cy="44" r="4" fill="#FFFFFF" opacity=".7" />
  <path d="M56 38l10-8 8 10 12-12 14 14" fill="none" stroke="#F27D72" stroke-width="4" stroke-linecap="round" stroke-linejoin="round" />
</svg>
