<svg xmlns="http://www.w3.org/2000/svg" viewBox="0 0 120 120" role="img" aria-labelledby="title desc">
  <title id="title">Ícono de moneda con huella</title>
  <desc id="desc">Moneda dorada con una huella de perrita Border Collie y detalles en turquesa.</desc>
  <defs>
    <radialGradient id="coin" cx="50%" cy="40%" r="70%">
      <stop offset="0%" stop-color="#FFF5D9" />
      <stop offset="55%" stop-color="#FFD166" />
      <stop offset="100%" stop-color="#F4A259" />
    </radialGradient>
    <linearGradient id="paw" x1="0" y1="0" x2="1" y2="1">
      <stop offset="0%" stop-color="#1D2B4F" />
      <stop offset="100%" stop-color="#3B4C7A" />
    </linearGradient>
  </defs>
  <circle cx="60" cy="60" r="54" fill="url(#coin)" stroke="#C77E40" stroke-width="4" />
  <circle cx="60" cy="60" r="42" fill="none" stroke="#FFE3A6" stroke-width="6" stroke-dasharray="6 8" stroke-linecap="round" opacity=".8" />
  <g transform="translate(20 22)">
    <ellipse cx="20" cy="18" rx="10" ry="12" fill="url(#paw)" />
    <ellipse cx="50" cy="14" rx="9" ry="11" fill="url(#paw)" />
    <ellipse cx="72" cy="22" rx="9" ry="11" fill="url(#paw)" />
    <ellipse cx="40" cy="46" rx="13" ry="15" fill="url(#paw)" />
    <ellipse cx="64" cy="48" rx="13" ry="16" fill="url(#paw)" />
    <path d="M34 52c-6 7-7 16-3 23 5 8 16 13 28 13 12 0 23-5 29-13 5-7 4-16-2-23-7-8-19-13-30-13-12 0-21 5-22 13z" fill="#2B8F89" opacity=".7" />
    <path d="M42 54c-4 5-5 11-2 16 4 6 11 9 20 9 8 0 16-3 20-9 4-5 3-11-1-16-5-6-13-9-21-9-9 0-15 3-16 9z" fill="#3FB6B0" />
    <path d="M48 58c-2 3-2 6 0 9 3 4 8 5 12 4 4-1 8-4 9-8 1-3 0-6-3-9-3-3-7-4-12-3-4 1-7 3-6 7z" fill="#FFFFFF" opacity=".6" />
  </g>
  <path d="M28 28l8-6 5 9" fill="none" stroke="#3FB6B0" stroke-width="4" stroke-linecap="round" stroke-linejoin="round" opacity=".8" />
  <path d="M92 26l4 10 10-4" fill="none" stroke="#3FB6B0" stroke-width="4" stroke-linecap="round" stroke-linejoin="round" opacity=".8" />
  <path d="M26 88l10 2-2 10" fill="none" stroke="#3FB6B0" stroke-width="4" stroke-linecap="round" stroke-linejoin="round" opacity=".8" />
  <path d="M94 92l-6 8 9 6" fill="none" stroke="#3FB6B0" stroke-width="4" stroke-linecap="round" stroke-linejoin="round" opacity=".8" />
</svg>
