<svg xmlns="http://www.w3.org/2000/svg" viewBox="0 0 160 160" role="img" aria-labelledby="title desc">
  <title id="title">Avatar de Luna</title>
  <desc id="desc">Avatar circular de Luna, la perrita Border Collie, sonriendo con un moño turquesa.</desc>
  <defs>
    <linearGradient id="bg" x1="0" y1="0" x2="1" y2="1">
      <stop offset="0%" stop-color="#3FB6B0" />
      <stop offset="100%" stop-color="#2B8F89" />
    </linearGradient>
    <linearGradient id="furLight" x1="0" y1="0" x2="1" y2="1">
      <stop offset="0%" stop-color="#FFFFFF" />
      <stop offset="100%" stop-color="#F7F4F1" />
    </linearGradient>
  </defs>
  <circle cx="80" cy="80" r="76" fill="url(#bg)" />
  <g transform="translate(24 28)">
    <path d="M24 54c-12 10-17 28-13 44 4 14 15 27 29 33 15 6 33 5 47-3 15-8 26-23 28-38 3-18-5-36-18-47-12-10-29-15-45-12-11 2-20 7-28 16z" fill="#1D2B4F" />
    <path d="M34 50c-12 9-18 24-15 38 3 14 12 26 23 33 11 6 24 7 36 2 13-5 23-17 26-30 4-14-1-30-11-40-10-10-25-16-39-15-8 1-15 4-20 8z" fill="#2F3C66" />
    <path d="M38 60c-9 7-13 19-11 30 3 11 10 21 19 27 8 5 18 6 27 3 11-3 20-12 24-23 4-11 1-25-6-34-7-9-19-15-30-15-8 0-15 3-23 12z" fill="url(#furLight)" />
    <path d="M70 60c-10 3-17 13-16 24 0 9 6 18 13 23 9 5 20 4 28-1 8-6 12-16 10-26-2-10-9-19-19-23-5-1-11-1-16 0z" fill="#FFFFFF" />
    <ellipse cx="64" cy="88" rx="11" ry="14" fill="#1B223D" />
    <ellipse cx="102" cy="90" rx="10" ry="13" fill="#1B223D" />
    <circle cx="60" cy="82" r="4" fill="#FFFFFF" />
    <circle cx="98" cy="84" r="4" fill="#FFFFFF" />
    <path d="M78 104c-5 5-5 11 1 15 6 4 14 4 19-1 5-4 5-11 0-15-6-5-14-5-20 1z" fill="#1E2A48" />
    <path d="M68 102c-6 6-6 16 2 22 10 8 24 6 32-4 7-9 6-20-4-26-10-5-21-4-30 8z" fill="#2F3C66" />
    <path d="M34 82c-3 10-3 21 1 30 5 10 14 19 24 23 12 5 26 4 37-3 12-6 20-17 23-29 3-13-1-26-9-35-8-8-20-12-32-10-13 2-24 10-33 24-4 6-9 8-11 0z" fill="#3FB6B0" opacity=".18" />
    <path d="M36 82c-2 8-1 17 3 24 4 8 11 14 18 17 9 4 21 3 29-2 9-5 16-14 18-24 2-10-1-21-8-28-6-6-16-9-25-8-10 1-19 6-26 13-3 3-6 7-9 8z" fill="#3FB6B0" opacity=".26" />
    <path d="M42 82c-2 6-1 14 2 20 3 6 8 11 13 14 7 3 16 2 22-2 7-5 12-11 14-19 2-8-1-16-6-21-5-5-13-7-20-6-8 1-15 5-21 11-2 2-3 3-4 3z" fill="#2B8F89" />
    <path d="M30 76c-3-8-2-18 3-25 6-8 16-13 26-14 12-1 24 2 34 9 9 6 17 14 21 23 4 7 5 15 3 22-2 6-7 10-13 10-6 0-12-4-16-8-5-5-10-9-16-10-6-1-12 1-20-10-3-4-5-5-5 0z" fill="#1D2B4F" opacity=".32" />
    <path d="M44 22c-6-10-6-22 2-31 9-10 26-14 40-11 13 2 26 10 35 21 7 9 10 20 8 29-2 7-8 12-15 11-6 0-12-5-17-9-8-6-19-9-28-8-8 1-15 5-20 11-2 2-3 3-5-2z" fill="#1D2B4F" />
    <path d="M40 20c-5-9-4-19 3-27 9-9 24-12 36-10 13 2 25 9 34 19 7 8 10 17 8 25-2 6-7 10-13 10-5 0-11-4-15-8-7-6-17-9-26-8-8 1-15 4-20 9-2 2-3 2-7-10z" fill="#2F3C66" />
    <path d="M34 18c-2-8 2-17 9-22 9-7 22-8 33-6 13 3 24 10 32 19 6 7 9 15 8 21-1 5-5 8-10 8-4 0-9-3-13-6-6-5-14-7-22-6-7 0-15 2-22 6-5 2-9-1-15-14z" fill="#1D2B4F" opacity=".85" />
    <path d="M48 14l12 12" stroke="#FFFFFF" stroke-width="4" stroke-linecap="round" />
    <path d="M110 16l-12 14" stroke="#FFFFFF" stroke-width="4" stroke-linecap="round" />
    <path d="M52 18c-5-4-11-5-16-2-5 4-8 10-7 16 1 6 6 11 11 13 5 1 10-1 13-5 4-5 4-12-1-19z" fill="#F27D72" />
    <path d="M104 18c5-4 12-4 17 0 6 4 9 11 7 17-1 5-5 9-10 10-5 1-10-1-13-5-4-5-4-12-1-19z" fill="#F27D72" />
    <path d="M60 32c2-4 6-6 10-7 4-1 9 0 13 3 5 3 8 7 9 12" stroke="#FFD166" stroke-width="6" stroke-linecap="round" />
  </g>
</svg>
