<svg xmlns="http://www.w3.org/2000/svg" viewBox="0 0 560 560" role="img" aria-labelledby="title desc">
  <title id="title">Luna la Border Collie - Ilustraci칩n principal</title>
  <desc id="desc">Ilustraci칩n estilizada de una perrita Border Collie con pa침uelo turquesa sobre un fondo circular c치lido.</desc>
  <defs>
    <linearGradient id="bgGradient" x1="0" y1="0" x2="1" y2="1">
      <stop offset="0%" stop-color="#FFF5E9" />
      <stop offset="100%" stop-color="#FCE0D1" />
    </linearGradient>
    <linearGradient id="scarfGradient" x1="0" y1="0" x2="1" y2="1">
      <stop offset="0%" stop-color="#3FB6B0" />
      <stop offset="100%" stop-color="#2B8F89" />
    </linearGradient>
    <linearGradient id="eyeShine" x1="0" y1="0" x2="1" y2="1">
      <stop offset="0%" stop-color="#FFFFFF" stop-opacity="0.8" />
      <stop offset="100%" stop-color="#FFFFFF" stop-opacity="0" />
    </linearGradient>
  </defs>
  <g fill="none" fill-rule="evenodd">
    <circle cx="280" cy="280" r="260" fill="url(#bgGradient)" />
    <path d="M167 394c26 56 88 90 113 94 21 3 77-22 114-68 22-28 26-76 14-109-10-28-28-40-43-48-22-11-65-17-99-12-52 7-98 41-113 87-9 28-3 57 14 74z" fill="#F7E5D6" />
    <path d="M183 222c-24 20-33 59-27 93 3 18 12 39 27 52 21 18 58 30 97 30 37 0 71-10 92-27 22-18 35-49 31-79-4-32-26-69-53-86-19-12-41-16-60-16-44 0-83 16-107 33z" fill="#1D2B4F" />
    <path d="M200 210c-22 19-32 49-26 76 6 25 25 49 55 62 17 7 37 10 53 10 33 0 67-11 88-36 19-23 16-65-5-94-16-22-47-41-76-41-39 0-72 10-89 23z" fill="#2F3C66" />
    <path d="M215 236c-14 13-20 42-11 62 8 18 27 34 45 44 16 9 36 13 51 11 24-4 48-20 60-40 10-16 13-42 4-61-9-21-30-35-55-39-28-4-70 5-94 23z" fill="#F7F4F1" />
    <path d="M248 236c-14 9-24 34-22 55 1 16 12 33 29 43 13 8 30 12 44 9 21-4 40-20 46-40 6-17 2-35-9-49-12-16-35-26-52-27-14-1-27 2-36 9z" fill="#FFFFFF" />
    <path d="M214 360c10 18 34 35 56 40 23 6 55 0 75-16 16-13 21-33 15-50-6-15-20-28-37-31-21-4-48 2-65 15-20 15-33 29-44 42z" fill="#1D2B4F" opacity=".95" />
    <path d="M183 400c17 32 56 58 88 63 23 4 57-10 82-33 16-15 29-36 33-55 4-22-5-44-25-59-22-17-58-26-85-23-28 3-54 20-71 41-19 23-29 52-22 66z" fill="#2F3C66" opacity=".9" />
    <path d="M170 347c14 32 53 54 91 59 26 3 60-6 84-23 19-13 33-34 35-53 1-20-8-40-24-52-20-15-52-22-79-18-30 4-63 22-83 45-16 19-23 34-24 42z" fill="#35436B" opacity=".85" />
    <path d="M282 245c-18 8-28 29-24 47 3 12 14 24 28 28 15 4 32-1 43-11 13-11 19-33 12-48-7-16-26-24-42-24-6 0-12 1-17 3z" fill="#1D2B4F" />
    <ellipse cx="266" cy="276" rx="18" ry="22" fill="#1B223D" />
    <ellipse cx="266" cy="270" rx="6" ry="8" fill="#FFFFFF" />
    <ellipse cx="336" cy="280" rx="17" ry="21" fill="#1B223D" />
    <ellipse cx="336" cy="274" rx="5" ry="7" fill="#FFFFFF" />
    <path d="M292 310c-7 9-7 20 0 26 8 7 21 7 29 0 7-6 8-17 1-26-8-9-22-9-30 0z" fill="#1D2B4F" />
    <path d="M282 304c-9 7-11 22-1 31 12 10 33 8 42-5 8-11 4-24-8-32-12-8-24-7-33 6z" fill="#2F3C66" />
    <path d="M246 330c-13 8-23 21-23 37 0 15 10 31 25 36 15 5 35 1 49-8 13-9 21-23 20-36-2-17-16-31-36-34-13-3-27 0-35 5z" fill="#F27D72" />
    <path d="M248 340c-10 6-17 17-16 28 1 9 7 19 17 22 11 3 25 0 35-6 10-6 16-16 16-26 0-13-11-25-26-26-10-1-20 2-26 8z" fill="#F9A08A" />
    <path d="M199 419c22 28 55 47 83 48 23 1 49-14 70-37 17-19 27-41 28-60 1-21-8-44-25-57-17-13-42-19-65-16-31 4-63 24-81 53-18 29-20 57-10 69z" fill="#3FB6B0" opacity=".18" />
    <path d="M208 414c18 26 46 44 70 46 20 2 44-11 62-30 15-17 23-36 24-52 1-18-7-37-21-48-15-11-37-17-57-15-26 2-53 19-69 44-16 25-17 49-9 55z" fill="#3FB6B0" opacity=".22" />
    <path d="M215 407c14 23 37 39 58 41 17 2 39-9 55-25 13-14 20-30 20-43 1-15-6-30-17-39-13-10-31-14-48-12-21 3-43 16-56 36-12 19-14 38-12 42z" fill="#3FB6B0" opacity=".3" />
    <path d="M205 397c-5 15 4 36 18 49 12 11 29 18 43 16 17-2 35-15 47-30 12-16 18-33 16-46-2-15-11-30-24-37-16-9-39-8-56 2-18 10-36 27-44 46z" fill="url(#scarfGradient)" />
    <path d="M187 430c10 12 27 21 46 25 14 3 33 1 45-5 15-7 26-19 29-33 4-18-8-42-27-49-20-7-48 2-65 21-16 18-22 36-28 41z" fill="#2B8F89" />
    <path d="M175 430c4 17 19 33 35 41 18 9 40 11 56 6 20-7 37-24 46-42 7-14 8-34-2-47-12-17-40-23-63-16-22 7-48 30-60 58-5 11-8 17-12 0z" fill="#FFFFFF" opacity=".14" />
    <path d="M220 450c13 9 35 13 51 10 15-3 31-15 37-28 4-10 3-22-6-30-11-11-33-12-50-4-18 9-30 27-32 41z" fill="#1D2B4F" opacity=".08" />
    <circle cx="260" cy="266" r="8" fill="url(#eyeShine)" />
    <circle cx="328" cy="270" r="7" fill="url(#eyeShine)" />
    <path d="M269 318c11 7 26 8 34 2 5-3 5-8 1-13-5-6-15-8-23-5-10 3-16 9-12 16z" fill="#FCE0D1" opacity=".7" />
    <path d="M214 223c-12-22-14-50 5-66 18-15 51-16 77-9 20 6 38 17 49 32 9 12 15 27 15 40 0 8-3 15-9 19-8 4-19 1-28-4-9-6-19-15-30-20-22-11-51-10-79 8z" fill="#1D2B4F" />
    <path d="M208 215c-11-18-10-44 7-59 20-18 56-18 83-10 21 6 40 18 52 34 9 13 14 28 14 40 0 7-2 13-6 17-6 5-17 3-26-1-10-4-21-12-33-18-22-11-53-14-81-3z" fill="#2F3C66" />
    <path d="M210 212c-7-15-5-36 9-49 17-16 49-19 76-13 23 5 45 17 59 33 11 11 18 26 19 37 1 5-1 10-5 13-6 4-15 3-23 0-12-5-24-13-36-19-21-10-52-15-80-2-9 4-16 3-19 0z" fill="#1D2B4F" opacity=".8" />
  </g>
</svg>
