<svg xmlns="http://www.w3.org/2000/svg" viewBox="0 0 480 360" role="img" aria-labelledby="title desc">
  <title id="title">Luna analizando finanzas</title>
  <desc id="desc">Perrita Border Collie con gafas redondas revisando una tablet con gráficos financieros.</desc>
  <defs>
    <linearGradient id="bg" x1="0" y1="0" x2="1" y2="1">
      <stop offset="0%" stop-color="#F7F4F1" />
      <stop offset="100%" stop-color="#EDE6FF" />
    </linearGradient>
    <linearGradient id="furDark" x1="0" y1="0" x2="1" y2="1">
      <stop offset="0%" stop-color="#1E2A48" />
      <stop offset="100%" stop-color="#2F3C66" />
    </linearGradient>
    <linearGradient id="furLight" x1="0" y1="0" x2="1" y2="1">
      <stop offset="0%" stop-color="#FFFFFF" />
      <stop offset="100%" stop-color="#F7F4F1" />
    </linearGradient>
    <linearGradient id="tablet" x1="0" y1="0" x2="1" y2="1">
      <stop offset="0%" stop-color="#26324E" />
      <stop offset="100%" stop-color="#1B223D" />
    </linearGradient>
  </defs>
  <rect width="480" height="360" rx="32" fill="url(#bg)" />
  <g transform="translate(60 48)">
    <ellipse cx="140" cy="220" rx="110" ry="26" fill="#D6CFED" opacity=".6" />
    <path d="M74 150c-14 24-18 53-11 78 7 24 24 45 43 58 18 12 39 19 57 18 17-1 37-7 51-19 18-14 30-34 34-54 4-20 0-41-10-59-12-23-33-43-58-51-23-8-52-5-71 13-12 10-21 23-25 36z" fill="url(#furDark)" />
    <path d="M86 134c-23 20-34 50-30 79 4 27 22 54 47 69 20 12 45 17 64 13 21-4 41-19 53-37 13-20 18-45 13-67-5-22-20-42-40-54-19-12-44-18-68-15-17 2-31 8-39 12z" fill="#1E2A48" opacity=".85" />
    <path d="M112 120c-15 11-24 32-24 52-1 21 7 42 21 59 12 14 30 25 47 29 20 5 42 2 58-10 17-13 27-35 27-56 0-20-9-40-26-55-14-13-34-23-53-25-19-1-38 2-50 6z" fill="url(#furLight)" />
    <path d="M130 124c-15 9-24 27-26 44-1 18 5 36 16 50 9 11 22 19 36 22 17 4 35 2 47-9 14-12 21-30 19-48-1-17-11-34-26-46-13-11-30-16-45-16-10 0-17 1-21 3z" fill="#FFFFFF" />
    <path d="M120 108c-12-22-8-50 14-64 21-13 54-10 78 0 21 8 39 23 49 41 8 14 11 30 7 44-3 11-13 20-24 21-12 0-25-9-36-18-15-12-37-19-55-19-14 0-26 4-33 11z" fill="#1D2B4F" />
    <path d="M172 114c-13 8-21 25-18 41 3 14 13 26 25 32 14 7 31 5 41-5 11-11 14-29 9-42-6-15-23-28-40-29-6 0-12 1-17 3z" fill="#1B223D" />
    <ellipse cx="162" cy="174" rx="16" ry="20" fill="#1B223D" />
    <ellipse cx="218" cy="178" rx="15" ry="19" fill="#1B223D" />
    <circle cx="156" cy="168" r="6" fill="#FFFFFF" />
    <circle cx="212" cy="172" r="6" fill="#FFFFFF" />
    <path d="M178 196c-7 6-7 16 0 22 7 6 19 6 25 0 6-6 6-15 0-21-7-7-19-7-25-1z" fill="#1E2A48" />
    <path d="M166 194c-8 8-8 22 2 31 12 10 30 9 40-2 9-10 10-24 2-33-9-10-26-11-38 4z" fill="#2F3C66" />
    <path d="M116 234c15 23 42 38 68 40 21 1 45-9 60-26 13-15 19-34 17-51-2-16-11-32-24-42-17-13-44-17-66-11-24 6-46 23-57 42-9 15-11 33 2 48z" fill="#3FB6B0" opacity=".22" />
    <path d="M110 240c13 24 39 41 64 44 19 3 41-6 56-21 13-13 20-30 19-46-2-18-13-34-29-43-17-10-41-11-61-3-22 9-42 30-52 52-5 11-3 20 3 17z" fill="#3FB6B0" opacity=".3" />
    <path d="M126 246c13 19 34 32 54 33 16 1 34-8 46-20 10-11 15-25 14-38-2-15-11-29-25-36-16-9-36-8-53 1-19 10-34 29-39 48-2 6-1 9 3 12z" fill="#2B8F89" />
    <path d="M102 232c3 18 14 36 28 48 15 13 34 20 51 19 20-1 40-12 53-28 13-16 18-36 14-52-4-17-19-30-37-34-22-4-50 6-69 26-19 20-26 39-32 21z" fill="#FFFFFF" opacity=".15" />
    <path d="M204 122c9 5 20 6 27 3 5-2 7-6 6-11-1-7-8-12-15-15-9-5-20-7-31-6-12 2-24 7-30 17-5 9-4 21 3 28 6 7 17 9 24 4 7-5 10-14 16-20z" fill="#2F3C66" />
    <path d="M142 120c-9-6-14-18-10-29 4-13 19-20 34-20 18 0 35 7 50 17 12 9 23 21 28 33 4 10 4 19-1 25-6 7-18 7-27 2-11-5-19-13-29-19-14-9-30-12-45-9z" fill="#1D2B4F" opacity=".85" />
    <path d="M68 246c-8 6-10 15-4 23 5 6 15 9 23 7 10-2 17-9 18-17 0-7-5-14-13-16-8-3-18 0-24 3z" fill="#F27D72" />
    <path d="M62 240c-10 7-13 21-5 30 6 7 18 10 27 8 12-3 22-12 25-23 2-9-3-18-12-22-8-4-23-1-35 7z" fill="#F9A08A" />
    <rect x="204" y="202" width="180" height="118" rx="18" fill="url(#tablet)" />
    <rect x="214" y="210" width="160" height="102" rx="12" fill="#101628" />
    <path d="M226 228h48l12 24 24-36 18 28 22-16 14 26 22-10" stroke="#3FB6B0" stroke-width="6" stroke-linecap="round" stroke-linejoin="round" fill="none" />
    <path d="M226 266c12 0 22-6 30-14 8-9 14-20 24-26 10-7 24-10 36-7 13 4 24 14 36 17 10 3 24 0 32-6" stroke="#F7C15A" stroke-width="6" stroke-linecap="round" fill="none" opacity=".9" />
    <rect x="204" y="192" width="52" height="22" rx="10" fill="#FFDEB8" />
    <circle cx="230" cy="108" r="20" fill="#FAD4C9" opacity=".4" />
    <path d="M120 128c-9-5-19-6-28-1-8 5-14 14-15 24-1 8 1 17 6 23 4 5 11 8 17 7 9-1 17-9 21-18 5-9 5-23-1-35z" fill="#FAD9D3" opacity=".45" />
    <path d="M232 124c14-4 26-14 32-28 5-11 4-25-3-36-7-11-20-19-34-21-15-3-32 1-44 9-14 9-23 23-26 36-2 9-1 18 4 26 5 7 13 11 22 9 10-2 20-9 31-15 6-4 12-6 18-7z" fill="#1D2B4F" opacity=".6" />
  </g>
</svg>
