<svg xmlns="http://www.w3.org/2000/svg" viewBox="0 0 320 320" role="img" aria-labelledby="title desc">
  <title id="title">Patrón de huellas y gráficos</title>
  <desc id="desc">Patrón repetible con huellas de Border Collie, huesos y elementos financieros.</desc>
  <defs>
    <pattern id="pawPattern" width="80" height="80" patternUnits="userSpaceOnUse">
      <rect width="80" height="80" fill="#F7F4F1" />
      <g transform="translate(8 8)">
        <g fill="#2F3C66" opacity=".8">
          <ellipse cx="10" cy="10" rx="6" ry="7" />
          <ellipse cx="26" cy="8" rx="5" ry="6" />
          <ellipse cx="36" cy="16" rx="5" ry="6" />
          <ellipse cx="20" cy="28" rx="8" ry="9" />
          <ellipse cx="34" cy="30" rx="8" ry="9" />
        </g>
        <path d="M14 34c-4 4-5 9-2 13 3 5 10 8 17 8 7 0 14-3 17-8 3-4 2-9-2-13-4-4-10-6-15-6-6 0-11 2-15 6z" fill="#3FB6B0" opacity=".5" />
        <path d="M18 36c-2 2-3 5-1 7 2 3 6 4 10 4 4 0 7-1 9-4 2-2 1-5-1-7-3-3-8-4-11-4-3 0-5 1-6 4z" fill="#2B8F89" />
      </g>
      <g transform="translate(42 38)">
        <path d="M0 14c0-8 8-14 16-14 7 0 14 4 18 10l10-4 4 10-10 4c0 8-8 14-16 14-7 0-14-4-18-10l-10 4-4-10 10-4z" fill="#FFD166" opacity=".75" />
        <path d="M6 14c0-5 5-10 10-10 5 0 10 3 12 8l7-3 3 7-7 3c0 6-5 10-10 10-5 0-10-3-12-8l-7 3-3-7 7-3z" fill="#F27D72" opacity=".8" />
        <path d="M12 14c0-3 3-6 6-6 3 0 6 2 7 5l3-1 1 3-3 1c0 3-3 6-6 6-3 0-6-2-7-5l-3 1-1-3 3-1z" fill="#FFFFFF" opacity=".7" />
      </g>
      <path d="M10 60h18l6 8 10-14 8 10 12-8 8 12 10-6" stroke="#3FB6B0" stroke-width="4" stroke-linecap="round" stroke-linejoin="round" fill="none" />
      <path d="M54 58c4-6 10-10 18-10 9 0 16 5 20 12" stroke="#1D2B4F" stroke-width="3" stroke-linecap="round" opacity=".5" fill="none" />
      <path d="M46 10c2-6 8-10 14-10 6 0 12 4 15 9" stroke="#F27D72" stroke-width="3" stroke-linecap="round" opacity=".7" fill="none" />
    </pattern>
  </defs>
  <rect width="320" height="320" fill="url(#pawPattern)" />
</svg>
